<svg 
 xmlns="http://www.w3.org/2000/svg"
 xmlns:xlink="http://www.w3.org/1999/xlink"
 width="656.167mm" height="56.092mm">
<path fill-rule="evenodd"  fill="rgb(30, 5, 38)"
 d="M1837.687,129.938 C1839.719,129.754 1841.197,129.200 1842.490,128.645 C1843.968,127.907 1846.185,127.168 1847.293,127.168 C1849.694,127.168 1853.19,129.15 1855.236,130.308 C1857.637,131.601 1859.485,134.2 1859.485,135.480 C1859.485,137.512 1858.930,138.620 1854.312,138.620 L1852.280,138.620 C1848.586,138.436 1844.891,138.251 1841.197,138.251 C1834.178,138.251 1827.158,138.620 1819.400,139.544 C1807.208,140.652 1802.36,141.576 1793.354,143.239 C1792.430,143.423 1791.322,143.608 1790.583,143.608 C1789.844,143.608 1788.366,143.54 1787.443,142.315 C1783.379,139.175 1781.162,136.589 1781.162,135.850 C1781.162,135.295 1781.716,134.926 1783.194,134.741 C1791.876,133.818 1805.361,132.709 1816.259,131.601 C1816.259,113.498 1816.259,95.211 1816.444,76.923 C1811.826,77.662 1807.762,78.401 1803.514,79.324 C1802.775,79.509 1801.666,79.694 1801.297,79.694 C1800.558,79.694 1799.819,79.324 1798.711,78.586 C1796.494,76.923 1792.430,73.413 1792.430,72.490 C1792.430,71.936 1792.984,71.566 1794.647,71.381 C1800.743,70.827 1808.316,69.719 1816.444,68.610 C1816.629,57.712 1816.629,48.660 1816.629,40.902 L1816.629,36.99 C1816.629,29.819 1816.444,27.417 1815.336,23.538 C1812.750,23.908 1808.316,24.462 1805.176,24.831 C1804.68,25.16 1802.36,25.201 1801.297,25.201 C1800.373,25.201 1799.634,25.16 1798.895,24.462 C1796.309,22.430 1793.908,20.28 1793.908,18.551 C1793.908,17.812 1794.832,17.627 1796.494,17.627 C1808.316,16.334 1821.616,14.671 1835.471,12.270 C1837.503,11.901 1838.241,11.531 1839.165,10.977 C1840.89,10.423 1840.828,10.53 1841.751,10.53 C1843.968,10.53 1845.815,10.608 1848.32,12.85 C1851.172,14.117 1852.650,15.780 1852.650,17.812 C1852.650,19.105 1852.280,20.213 1846.923,20.583 C1838.980,21.137 1833.69,21.506 1825.865,22.430 C1826.419,22.799 1826.973,23.169 1827.528,23.723 C1829.375,25.570 1829.929,27.233 1829.929,28.341 C1829.929,29.449 1829.559,30.558 1829.190,31.481 C1828.266,33.883 1828.82,35.730 1827.712,43.673 C1827.158,51.247 1826.789,58.635 1826.604,66.948 L1830.298,66.394 C1833.808,65.840 1836.764,65.285 1837.872,64.916 C1839.535,63.992 1840.273,63.623 1841.566,63.623 C1843.229,63.623 1844.707,64.362 1846.554,65.470 C1849.694,67.317 1851.726,69.904 1851.726,71.12 C1851.726,73.44 1850.248,73.783 1843.229,74.152 C1837.318,74.522 1831.776,74.891 1826.419,75.630 C1826.234,87.268 1826.50,98.905 1826.50,110.727 C1826.50,117.377 1826.50,124.27 1825.865,130.862 C1829.375,130.493 1833.254,130.123 1837.687,129.938 ZM1787.812,46.628 C1787.812,68.795 1785.780,92.440 1779.684,112.944 C1774.697,128.830 1766.569,142.869 1754.931,153.29 C1754.377,153.583 1753.638,153.768 1753.269,153.768 C1752.345,153.768 1751.606,153.29 1751.606,152.105 C1751.606,151.736 1751.791,151.182 1752.345,150.443 C1760.843,139.359 1767.123,126.613 1771.557,108.511 C1774.697,95.765 1776.544,78.586 1776.913,59.744 C1777.98,54.941 1777.98,46.259 1777.98,38.316 C1777.98,31.666 1777.98,25.570 1776.729,22.430 C1776.359,16.519 1775.620,13.748 1773.773,9.869 C1773.404,9.130 1773.219,8.576 1773.219,8.21 C1773.219,6.913 1774.143,6.544 1775.66,6.544 C1777.283,6.544 1781.531,9.499 1785.965,13.194 C1788.182,15.41 1789.290,16.149 1789.290,18.551 C1789.290,19.659 1789.105,20.767 1788.920,21.321 C1788.182,24.277 1787.812,29.634 1787.812,46.628 ZM1761.581,86.898 C1761.581,91.516 1760.104,94.841 1756.963,94.841 C1755.301,94.841 1754.8,94.102 1752.530,91.147 C1751.606,89.299 1750.868,87.822 1750.868,84.681 C1750.868,82.95 1751.976,81.172 1752.161,76.184 C1752.161,73.598 1752.345,70.458 1752.345,67.317 C1752.345,62.699 1752.161,57.897 1751.976,53.278 C1751.791,48.845 1751.237,45.151 1749.944,41.641 C1749.574,40.902 1749.390,40.348 1749.390,39.794 C1749.390,39.55 1749.944,38.685 1750.683,38.685 C1751.237,38.685 1752.161,38.870 1753.84,39.240 C1756.224,40.533 1762.690,45.335 1762.690,47.367 C1762.690,49.30 1761.766,50.877 1761.766,55.310 C1761.581,65.285 1761.581,72.305 1761.581,86.898 ZM1726.854,30.3 C1728.701,31.296 1730.363,32.774 1730.363,34.621 C1730.363,37.577 1728.701,37.946 1728.516,42.565 C1728.331,49.953 1728.147,56.973 1727.962,64.177 C1730.548,63.623 1732.580,63.69 1733.688,62.515 C1734.981,61.960 1735.905,61.591 1737.198,61.591 C1738.122,61.591 1739.45,61.776 1740.523,62.330 C1743.479,63.623 1745.695,65.840 1745.695,67.502 C1745.695,69.165 1743.848,69.904 1741.447,70.88 C1737.937,70.273 1734.427,70.827 1727.962,71.751 C1727.777,80.63 1727.777,95.26 1727.777,104.631 C1734.58,101.491 1739.230,98.536 1745.326,94.656 C1745.880,94.287 1746.434,94.102 1746.988,94.102 C1747.727,94.102 1748.281,94.656 1748.281,95.395 C1748.281,95.949 1748.97,96.688 1747.727,97.58 C1737.567,106.848 1725.6,116.269 1710.783,124.766 C1708.381,126.244 1705.980,127.352 1704.133,129.200 C1703.209,130.123 1702.101,130.677 1701.177,130.677 C1700.69,130.677 1698.960,129.938 1697.667,128.830 C1694.158,126.59 1690.648,121.257 1690.648,119.594 C1690.648,118.855 1691.202,118.486 1692.495,118.301 C1698.221,117.747 1701.546,116.454 1705.241,114.976 C1709.859,112.944 1714.108,111.281 1717.987,109.434 C1718.172,97.427 1718.356,77.662 1718.356,73.598 C1713.553,74.522 1708.197,75.445 1704.317,75.999 C1703.394,76.184 1702.840,76.184 1702.285,76.184 C1701.362,76.184 1700.623,75.815 1699.330,74.891 C1697.113,73.229 1693.234,69.719 1693.234,68.980 C1693.234,68.426 1693.973,68.241 1695.451,68.241 C1697.852,68.241 1701.916,67.687 1705.56,67.317 C1708.566,66.948 1713.738,66.209 1718.356,65.470 L1718.356,46.74 C1718.172,36.469 1718.356,33.513 1717.63,31.296 C1707.88,32.405 1702.470,33.144 1701.546,33.144 C1700.808,33.144 1699.884,32.774 1699.330,32.220 C1697.298,30.373 1693.973,26.494 1693.973,25.755 C1693.973,25.201 1694.712,25.16 1696.190,24.831 C1704.687,24.92 1717.63,22.430 1729.809,20.583 C1732.949,20.213 1735.166,19.659 1736.274,19.105 C1737.752,18.366 1739.230,17.812 1740.154,17.812 C1742.186,17.812 1743.663,18.366 1746.249,19.659 C1748.651,20.952 1750.868,22.430 1750.868,24.277 C1750.868,26.494 1749.390,27.233 1743.479,27.971 C1739.599,28.526 1733.504,29.265 1726.854,30.3 ZM1629.409,145.76 C1614.534,145.76 1601.933,137.726 1595.458,125.651 C1588.983,113.575 1585.483,97.475 1585.483,80.325 C1585.483,63.0 1588.983,47.249 1595.458,34.999 C1601.933,22.749 1614.534,15.574 1629.409,15.574 C1644.109,15.574 1656.709,22.749 1663.184,34.999 C1669.660,46.899 1673.160,63.0 1673.160,80.325 C1673.160,97.650 1669.660,113.575 1663.184,125.651 C1656.709,137.901 1644.109,145.76 1629.409,145.76 ZM1629.409,20.124 C1610.684,20.124 1602.458,38.674 1602.458,80.500 C1602.458,122.151 1610.684,140.526 1629.409,140.526 C1648.134,140.526 1656.359,122.151 1656.359,80.325 C1656.359,38.499 1648.134,20.124 1629.409,20.124 ZM1502.534,137.376 C1510.59,136.851 1511.809,136.676 1514.84,135.626 C1517.934,133.876 1518.809,130.201 1518.809,117.601 L1518.809,43.924 C1518.459,28.699 1518.459,28.699 1517.59,27.474 C1515.659,26.249 1513.559,25.899 1509.184,25.899 L1502.534,25.899 L1502.534,20.824 C1515.834,19.949 1527.209,18.374 1535.785,16.274 C1534.910,30.99 1534.385,44.974 1534.385,65.625 L1534.385,117.601 C1534.385,129.326 1535.85,132.826 1537.535,134.926 C1539.635,136.676 1540.335,136.851 1550.310,137.376 L1550.310,142.451 L1502.534,142.451 L1502.534,137.376 ZM1426.936,87.850 L1465.612,87.850 L1465.612,97.475 L1426.936,97.475 L1426.936,87.850 ZM1370.589,138.76 C1379.514,137.726 1383.189,135.626 1383.189,130.551 C1383.189,128.451 1382.489,124.951 1381.89,120.576 L1373.739,98.525 L1324.913,98.525 L1319.313,114.275 C1317.213,119.876 1315.988,125.301 1315.988,128.626 C1315.988,134.926 1320.538,137.726 1330.688,138.76 L1330.688,142.451 L1289.737,142.451 L1289.737,138.76 C1299.713,138.76 1305.488,131.951 1312.138,114.275 L1349.413,15.574 L1360.264,14.349 L1397.364,120.51 C1402.264,134.401 1405.589,137.726 1415.740,138.76 L1415.740,142.451 L1370.589,142.451 L1370.589,138.76 ZM1350.113,30.799 L1327.363,92.50 L1371.464,92.50 L1350.113,30.799 ZM1263.595,136.219 C1263.595,140.837 1260.639,143.239 1257.314,143.239 C1253.66,143.239 1249.2,138.990 1241.982,131.416 C1228.682,116.823 1211.872,103.523 1195.802,92.809 C1177.699,112.20 1157.194,129.15 1127.269,143.608 C1126.346,143.977 1125.976,143.977 1125.607,143.977 C1123.944,143.977 1122.836,142.684 1122.836,141.207 C1122.836,140.98 1123.575,139.175 1124.868,138.251 C1147.589,123.473 1167.354,106.848 1182.501,89.669 C1200.50,69.904 1212.242,53.463 1224.434,32.959 C1209.840,34.806 1191.922,37.762 1181.947,39.609 C1169.940,41.826 1164.953,42.380 1161.443,43.119 C1158.303,43.673 1157.194,44.966 1154.793,45.151 C1152.207,45.151 1149.621,43.673 1147.219,41.272 C1143.710,37.762 1142.601,35.915 1142.601,34.621 C1142.601,33.513 1143.340,32.959 1144.449,32.959 C1148.512,33.328 1150.914,33.328 1154.608,33.328 C1157.379,33.144 1163.106,32.590 1170.125,31.851 C1184.903,30.3 1202.636,27.233 1218.892,25.201 C1222.956,24.462 1225.542,23.908 1228.497,21.137 C1229.791,20.28 1230.899,19.659 1232.192,19.659 C1234.224,19.659 1237.179,20.952 1239.766,22.430 C1243.645,24.462 1245.861,26.494 1245.861,28.526 C1245.861,30.188 1243.645,32.35 1242.352,33.513 C1240.874,35.176 1238.288,38.501 1234.593,43.119 C1224.618,57.158 1213.720,72.674 1200.235,88.6 C1216.306,95.211 1228.313,101.676 1237.918,108.511 C1253.435,119.225 1263.595,128.830 1263.595,136.219 ZM1068.713,47.552 C1059.107,47.552 1051.349,39.794 1051.349,30.3 C1051.349,20.398 1059.107,12.639 1068.713,12.639 C1078.503,12.639 1086.261,20.398 1086.261,30.3 C1086.261,39.794 1078.503,47.552 1068.713,47.552 ZM1068.713,17.812 C1061.693,17.812 1056.521,22.984 1056.521,30.3 C1056.521,37.23 1061.693,42.195 1068.713,42.195 C1075.732,42.195 1080.905,37.23 1080.905,30.3 C1080.905,22.984 1075.732,17.812 1068.713,17.812 ZM1082.936,109.988 C1082.936,114.606 1079.796,117.747 1075.548,117.747 C1071.853,117.747 1069.452,114.52 1067.50,108.511 C1057.445,86.344 1038.972,58.451 1024.379,45.151 C1023.640,44.412 1023.271,43.673 1023.271,42.934 C1023.271,41.456 1024.379,40.533 1026.42,40.533 C1026.965,40.533 1027.889,40.902 1029.182,41.641 C1049.132,53.278 1069.821,79.694 1080.166,100.752 C1082.13,104.631 1082.936,107.587 1082.936,109.988 ZM981.339,72.490 C970.810,91.886 955.478,110.173 936.82,121.441 C935.343,121.811 934.604,121.995 934.50,121.995 C932.572,121.995 931.833,120.887 931.833,119.409 C931.833,118.855 932.18,118.301 932.757,117.562 C949.751,102.415 961.19,85.974 968.593,68.610 C969.701,65.840 970.810,61.960 970.810,58.266 C970.810,56.234 970.440,54.202 969.701,52.540 C969.332,51.616 969.147,50.508 969.147,49.769 C969.147,48.845 970.71,48.291 971.179,48.291 C973.581,48.291 977.275,49.584 983.740,54.387 C986.511,56.419 987.435,58.81 987.435,59.744 C987.435,61.222 986.696,62.515 985.772,63.992 C984.479,66.209 982.447,70.273 981.339,72.490 ZM848.339,101.122 C833.192,114.52 816.751,125.505 803.82,134.187 C798.94,137.143 794.585,139.175 791.444,141.761 C790.336,142.684 789.228,143.54 787.750,143.54 C785.718,143.54 782.393,140.652 777.775,134.372 C775.743,131.601 775.4,129.384 775.4,127.907 C775.4,126.244 775.743,125.505 777.36,125.505 C778.329,125.505 781.469,126.983 783.871,126.983 C786.87,126.983 787.935,126.244 789.782,125.320 C806.38,116.823 823.32,106.109 838.549,94.102 C856.282,80.433 873.831,64.362 886.946,49.584 C887.870,48.476 888.978,48.106 889.902,48.106 C891.564,48.106 892.673,49.215 892.673,50.877 C892.673,51.431 892.488,52.170 892.118,52.909 C882.882,68.980 865.518,86.529 848.339,101.122 ZM804.560,54.17 C803.82,54.17 800.681,52.724 798.464,50.692 C791.814,44.597 781.839,34.806 774.819,28.526 C773.896,27.787 773.526,27.48 773.526,26.309 C773.526,25.16 774.450,23.908 775.928,23.908 C776.482,23.908 777.590,24.92 778.883,24.462 C789.597,27.233 799.572,31.851 805.853,37.392 C808.993,40.163 810.840,43.673 810.840,46.998 C810.840,50.138 808.254,54.17 804.560,54.17 ZM690.32,77.477 C681.350,86.713 672.853,96.319 658.999,103.893 C658.629,104.77 658.75,104.262 657.706,104.262 C656.597,104.262 655.489,103.523 655.489,102.230 C655.489,101.676 655.858,100.752 656.597,100.13 C667.311,89.299 675.70,78.586 678.949,71.566 C679.134,71.197 679.134,71.197 679.134,70.827 C679.134,70.458 678.949,70.273 678.395,70.273 C678.25,70.273 677.841,70.273 677.102,70.458 C661.954,74.152 644.775,78.586 631.475,82.280 C635.724,101.122 639.603,116.823 646.622,145.455 C646.992,147.118 647.177,148.411 647.177,149.519 C647.177,152.475 645.883,154.137 643.297,154.137 C641.450,154.137 639.233,153.398 637.571,151.366 C635.539,149.150 634.615,145.640 634.61,142.130 C633.876,139.914 632.953,133.79 631.290,126.59 C628.704,114.976 624.456,95.580 621.869,84.681 C617.990,85.790 614.665,86.898 608.385,89.115 C604.875,90.408 600.257,92.624 598.410,93.363 C597.301,93.918 596.378,94.472 595.269,94.472 C594.530,94.472 593.422,94.287 591.390,92.809 C587.326,89.669 584.925,87.268 584.925,85.605 C584.925,84.866 585.479,84.127 586.587,84.127 C589.728,83.942 593.976,83.573 598.594,82.280 C603.951,80.987 610.601,79.140 620.22,76.738 C618.360,69.904 616.882,64.177 615.404,57.712 C613.742,50.692 611.525,45.520 609.678,43.303 C609.124,42.565 608.939,42.10 608.939,41.456 C608.939,40.533 609.678,39.794 610.971,39.794 C613.3,39.794 618.544,40.717 622.793,42.749 C625.10,43.858 625.749,45.335 625.749,46.813 C625.749,48.291 625.194,49.30 625.194,50.323 C625.194,52.724 625.564,55.310 626.118,58.820 C627.226,64.362 628.335,69.719 629.628,74.337 C644.590,70.458 660.846,66.763 672.484,64.177 C677.656,62.884 679.134,62.330 680.242,61.406 C680.981,60.852 682.89,60.298 683.197,60.298 C684.675,60.298 687.816,61.776 691.879,64.916 C695.20,67.317 696.498,69.534 696.498,71.197 C696.498,72.305 695.574,73.413 694.650,73.967 C693.542,74.706 691.510,75.999 690.32,77.477 ZM467.72,85.790 C472.799,103.708 479.79,122.734 484.621,139.359 C485.545,142.315 486.99,144.901 486.99,146.748 C486.99,150.627 483.882,152.844 480.372,152.844 C478.710,152.844 476.863,152.105 474.461,149.150 C473.168,147.487 472.60,143.423 470.767,138.251 C470.213,135.665 468.735,130.493 467.257,125.505 C464.117,114.606 460.422,102.415 456.728,89.484 C443.982,94.102 430.867,98.351 420.153,102.784 C418.306,103.523 415.350,104.631 411.471,106.663 C410.547,107.218 409.439,107.587 408.146,107.587 C407.222,107.587 406.299,107.402 405.5,106.848 C402.235,105.555 397.617,102.415 397.617,101.122 C397.617,100.568 398.171,100.13 399.279,99.644 C421.446,91.701 440.288,85.420 454.142,80.248 C449.708,65.840 447.122,56.973 444.721,48.476 C434.746,51.801 421.631,55.865 410.732,59.929 C409.624,60.298 408.700,60.667 407.776,60.667 C407.37,60.667 406.483,60.483 405.560,59.929 C401.680,57.897 397.986,54.17 397.986,53.278 C397.986,52.540 398.355,52.170 399.464,51.985 C408.330,50.138 416.458,47.552 425.694,44.597 C431.51,42.934 436.408,41.272 441.765,39.424 C440.288,34.437 438.810,30.3 437.517,25.385 C435.300,17.627 432.529,12.455 429.758,10.238 C428.650,9.314 428.96,8.206 428.96,7.467 C428.96,6.174 429.19,5.251 433.83,5.251 C436.963,5.251 442.135,5.989 444.721,7.98 C446.938,8.206 447.861,10.53 447.861,11.901 L447.861,13.933 C447.861,16.703 448.415,19.474 449.154,23.169 C450.263,27.602 451.186,30.927 452.479,35.545 C458.206,33.513 467.72,30.373 473.907,27.971 C477.971,26.494 480.742,24.277 482.959,23.353 C484.621,22.799 487.22,22.245 489.793,22.245 C491.86,22.245 492.564,22.430 493.857,22.799 C497.367,23.908 498.475,26.678 498.475,27.971 C498.475,30.3 496.997,31.666 492.749,32.959 C480.3,36.838 467.996,40.533 455.65,44.781 C457.836,55.310 460.422,64.362 464.302,76.738 C472.799,73.783 482.959,69.904 491.86,66.948 C494.411,65.840 498.106,63.808 500.138,62.699 C501.985,61.591 503.832,60.667 506.603,60.667 C509.559,60.667 511.591,61.37 513.253,61.591 C515.654,62.330 517.317,64.177 517.317,66.763 C517.317,68.426 516.209,69.904 511.406,71.381 C495.335,76.369 485.729,78.955 467.72,85.790 ZM352.914,100.383 C349.589,100.383 343.309,99.829 335.735,99.829 C325.945,99.829 307.472,101.122 293.988,102.230 C277.732,103.523 252.425,106.109 245.221,107.402 C243.374,107.772 241.526,107.956 240.603,107.956 C239.310,107.956 238.755,107.587 237.832,106.663 C236.169,105.1 233.29,100.937 233.29,100.13 C233.29,99.274 233.583,99.90 234.322,98.905 C238.571,98.536 243.558,98.351 251.317,97.612 C254.457,97.243 257.782,96.873 261.107,96.688 C259.999,85.51 258.521,72.674 257.597,64.916 C256.858,59.190 255.750,51.985 254.826,46.998 C254.88,42.565 252.794,38.870 250.947,36.469 C250.393,35.730 250.208,35.176 250.208,34.621 C250.208,33.513 251.132,32.590 252.425,32.590 C254.272,32.590 257.228,33.144 260.183,34.437 L260.922,34.67 C276.993,26.124 290.478,18.551 301.7,10.608 C302.854,9.314 303.593,7.467 303.593,5.435 L303.593,4.327 C303.593,2.295 304.147,1.556 305.440,1.556 C307.842,1.556 316.154,5.251 319.479,8.206 C320.403,8.945 321.142,10.53 321.142,10.977 C321.142,11.531 320.957,12.85 320.403,12.639 C318.371,14.671 315.231,16.519 310.797,18.735 C296.204,25.570 281.242,32.220 264.801,37.392 C265.540,38.501 266.94,39.609 266.279,41.456 C266.649,44.412 266.833,47.183 267.18,51.247 C273.483,50.692 288.261,49.30 301.931,46.998 C312.460,45.335 319.849,44.412 324.98,43.488 C327.53,42.934 329.270,42.380 330.563,41.826 C331.856,41.87 333.703,40.533 335.550,40.533 C337.582,40.533 340.723,41.641 342.939,42.565 C345.341,43.673 348.481,46.259 348.481,48.660 C348.481,51.247 345.895,51.431 339.245,51.801 C332.964,52.170 325.206,53.94 315.231,54.17 C316.339,54.756 317.632,55.680 318.741,56.604 C320.218,57.897 321.511,59.190 321.511,60.667 C321.511,61.591 320.403,65.655 319.664,67.872 C319.110,69.719 318.186,73.229 317.447,76.554 C315.785,83.388 314.492,88.6 313.384,92.70 C316.154,91.886 324.467,90.962 326.314,90.777 C334.996,89.854 336.843,89.669 338.506,89.115 C340.538,88.561 342.200,88.191 344.417,88.191 C347.3,88.191 350.513,89.669 353.468,91.516 C355.500,92.994 356.978,94.841 356.978,96.504 C356.978,98.536 354.761,100.383 352.914,100.383 ZM307.657,54.941 C297.682,56.49 286.45,57.527 275.515,59.374 C274.776,59.559 274.222,59.559 273.483,59.559 C272.560,59.559 271.636,59.190 269.974,58.81 C269.50,57.527 268.126,56.788 267.203,56.49 C268.311,70.88 269.235,83.204 269.974,95.765 C280.133,94.841 290.293,94.102 300.453,93.179 L304.886,92.809 C305.625,89.115 306.734,82.834 307.657,76.923 C308.950,68.241 308.950,64.547 308.950,61.776 C308.950,59.190 308.396,57.158 307.657,54.941 ZM233.29,32.590 C229.704,32.590 226.194,29.634 222.500,25.570 C218.805,21.876 213.818,15.780 211.416,11.162 C211.47,10.423 210.678,9.869 210.678,9.314 C210.678,8.576 211.232,8.21 212.155,8.21 C214.187,8.21 221.761,10.238 228.965,14.856 C232.844,17.258 237.647,22.799 237.647,27.602 C237.647,30.558 236.169,32.590 233.29,32.590 ZM222.685,64.916 C222.685,67.872 220.468,69.534 217.328,69.534 C214.372,69.534 210.862,67.502 206.983,64.731 C202.735,61.591 196.639,56.604 193.868,52.540 C193.314,51.801 192.944,51.62 192.944,50.692 C192.944,49.953 193.498,49.399 195.161,49.399 L196.85,49.399 C200.148,49.399 206.798,50.692 212.340,53.94 C218.436,55.680 222.685,61.37 222.685,64.916 ZM165.236,53.833 C164.128,53.833 161.727,53.833 156.0,54.17 C141.407,54.756 128.107,55.865 116.285,56.788 C116.285,61.960 116.285,66.763 116.100,69.534 C123.674,68.795 130.693,68.426 137.897,68.56 C140.853,67.872 141.407,66.209 143.624,66.209 C144.732,66.209 146.579,66.948 151.13,69.904 C154.338,72.305 155.631,73.967 155.631,75.815 C155.631,76.738 155.261,77.477 154.153,79.140 C152.860,80.987 151.752,84.127 151.382,86.713 C150.643,92.809 149.350,102.784 147.873,109.804 C147.503,112.575 146.949,116.638 145.841,119.40 C145.102,120.518 143.993,121.626 141.961,121.626 C139.6,121.626 137.713,119.409 137.159,116.638 C119.979,117.562 102.985,118.670 85.990,120.702 C85.251,122.180 84.143,123.473 82.296,123.473 C79.710,123.473 78.47,121.995 77.493,114.237 C77.124,106.109 76.200,93.363 75.831,88.376 C75.276,81.356 74.722,77.662 71.767,72.674 C71.397,72.120 71.213,71.566 71.213,71.197 C71.213,70.273 71.767,69.719 73.60,69.719 C74.907,69.719 78.232,71.12 81.742,73.229 C86.545,72.674 91.532,72.120 96.520,71.566 C100.29,71.197 103.354,70.827 106.864,70.458 C106.864,66.209 106.495,61.960 106.310,57.712 C98.182,58.451 90.978,59.190 75.461,61.37 C72.321,61.406 69.735,61.591 69.181,61.591 C68.442,61.591 67.703,61.406 66.779,60.667 C64.8,58.451 61.792,55.865 61.792,54.941 C61.792,54.387 62.161,54.17 63.639,53.833 C67.149,53.648 71.767,53.648 74.538,53.278 C79.895,52.724 85.990,52.170 92.640,51.616 C92.86,46.444 91.532,41.87 90.978,35.915 C87.99,36.469 84.328,36.838 81.557,37.208 C80.264,37.392 78.601,37.577 77.863,37.577 C76.569,37.577 75.646,37.577 74.907,36.838 C72.875,34.991 69.919,31.666 69.919,30.927 C69.919,30.373 70.474,30.3 71.767,29.819 C75.92,29.634 79.525,29.449 81.926,29.265 C84.697,29.80 88.392,28.710 90.239,28.526 L89.315,21.137 C88.576,15.410 88.207,12.639 86.729,10.53 C86.175,9.130 85.990,8.391 85.990,7.837 C85.990,6.728 86.914,6.174 87.838,6.174 C89.685,6.174 95.965,9.314 98.552,11.901 C99.660,12.824 100.29,13.748 100.29,14.671 C100.29,15.226 99.845,15.780 99.660,16.519 C99.290,17.996 99.106,19.844 99.106,21.321 L99.106,27.602 C106.495,27.48 115.915,25.940 123.674,25.16 C123.859,21.876 124.228,16.888 124.228,13.9 C124.228,9.130 123.859,6.913 122.750,4.696 C122.381,3.957 122.196,3.219 122.196,2.664 C122.196,1.371 122.935,0.817 124.43,0.817 C125.521,0.817 132.541,3.957 134.388,5.989 C135.681,7.282 136.50,8.206 136.50,9.314 C136.50,10.423 135.681,11.531 135.311,12.824 C134.572,15.780 134.18,19.474 133.279,23.908 C135.866,23.723 138.452,23.169 140.668,22.245 C142.516,21.506 144.178,21.137 145.286,21.137 C148.57,21.137 151.13,22.60 153.414,23.538 C155.446,24.831 156.924,26.678 156.924,28.156 C156.924,29.634 156.185,30.742 153.45,30.742 L144.363,30.742 C140.114,30.927 136.50,31.296 132.171,31.666 C131.63,37.208 130.324,42.749 129.216,48.291 C132.725,48.106 138.821,47.737 143.439,47.367 C146.579,46.998 149.350,46.444 152.121,45.520 C153.968,44.781 155.816,44.227 157.109,44.227 C160.64,44.227 163.20,45.520 165.606,46.998 C167.823,48.291 169.300,49.584 169.300,51.247 C169.300,52.724 168.377,53.833 165.236,53.833 ZM141.777,75.76 C133.834,75.261 125.152,75.815 115.915,76.554 C115.915,80.987 115.915,85.420 115.731,89.854 C119.425,89.484 122.750,89.299 125.706,89.115 C128.846,88.930 130.324,88.745 132.910,88.6 C133.649,87.822 134.203,87.822 134.757,87.822 C136.50,87.822 139.191,88.930 140.853,90.223 C141.407,84.866 141.592,79.694 141.777,75.76 ZM138.821,110.358 C139.560,105.370 139.929,100.568 140.484,95.580 L136.789,95.580 C129.954,95.580 122.750,95.765 115.546,96.319 L115.546,99.459 C115.361,103.523 115.361,107.587 115.177,111.651 C123.120,111.97 133.279,110.543 138.821,110.358 ZM86.545,114.52 C92.825,113.498 102.985,112.575 107.234,112.205 L107.234,97.58 C100.29,97.612 92.825,98.536 85.621,99.274 C85.990,104.262 86.175,109.65 86.545,114.52 ZM84.882,79.694 C84.882,84.127 85.251,89.484 85.436,92.994 C91.717,92.70 98.182,91.516 107.234,90.593 C107.234,86.159 107.49,81.726 107.49,77.292 C101.322,77.847 92.271,78.770 84.882,79.694 ZM99.290,34.991 L99.845,51.62 C107.234,50.323 114.622,49.584 122.11,49.30 C122.565,43.488 122.935,37.946 123.304,32.405 C115.361,32.959 105.940,34.67 99.290,34.991 ZM46.90,51.247 C45.906,52.909 45.906,54.756 45.906,56.604 L45.906,60.852 C49.969,62.145 54.33,63.438 57.543,65.840 C61.53,68.241 64.8,71.381 64.8,75.999 C64.8,78.586 62.346,80.433 60.129,80.433 C57.174,80.433 54.403,76.923 51.817,73.413 C50.893,71.936 48.676,68.795 45.721,65.655 C45.167,92.70 44.428,120.333 44.243,151.182 C44.243,155.615 42.396,158.386 39.994,158.386 C37.962,158.386 36.300,156.723 35.7,154.322 C33.714,151.366 32.975,148.41 32.975,144.347 C32.975,142.869 33.160,141.207 33.344,139.729 C34.268,134.2 34.453,128.91 34.637,121.995 C35.192,105.186 35.561,87.83 35.746,69.719 C26.510,85.420 16.535,96.688 3.419,106.848 C2.680,107.402 2.126,107.587 1.572,107.587 C0.648,107.587 0.279,107.33 0.279,106.294 C0.279,105.740 0.464,105.1 1.18,104.447 C13.948,90.408 25.217,72.120 33.160,52.909 C27.248,53.833 21.522,54.756 15.611,55.680 C14.503,55.865 13.25,56.49 12.286,56.49 C10.993,56.49 10.439,55.680 8.961,54.387 C6.744,52.540 4.158,49.584 4.158,48.660 C4.158,48.106 4.712,47.922 5.636,47.737 C10.254,47.183 14.503,46.998 18.382,46.628 C24.847,45.890 30.19,45.335 36.115,44.412 C36.115,40.348 36.300,36.469 36.300,32.590 L36.300,28.710 C36.300,17.73 35.930,10.238 33.529,5.620 C33.160,4.881 32.975,4.327 32.975,3.773 C32.975,2.849 33.529,2.295 34.637,2.295 C36.669,2.295 42.211,4.327 46.90,7.98 C47.937,8.576 49.46,10.53 49.46,11.346 C49.46,12.824 48.676,13.933 47.753,16.334 C46.829,18.920 46.275,24.831 46.275,32.774 C46.275,36.99 46.275,39.424 46.90,42.749 C49.969,42.10 51.632,41.826 53.479,41.87 C55.696,40.348 57.728,39.794 59.575,39.794 C61.422,39.794 63.269,40.533 64.932,41.456 C66.964,42.565 68.72,44.412 68.72,45.705 C68.72,48.291 66.225,48.845 62.346,49.399 C56.435,49.953 51.78,50.508 46.90,51.247 ZM84.513,135.850 C86.175,133.818 87.283,131.786 87.283,129.569 L87.283,128.91 C87.283,127.168 87.468,126.613 88.207,126.613 C89.685,126.613 96.150,130.308 98.552,132.340 C100.29,133.633 100.583,134.741 100.583,135.295 C100.583,136.404 99.660,138.66 97.628,139.729 C95.965,140.837 91.717,143.793 89.315,145.270 C80.264,151.182 71.767,154.876 61.976,157.277 C60.868,157.462 60.499,157.462 60.129,157.462 C59.575,157.462 59.21,156.908 59.21,156.169 C59.21,155.800 59.575,155.61 60.499,154.507 C71.767,148.41 78.786,142.315 84.513,135.850 ZM127.738,127.722 C129.585,127.722 134.203,129.938 142.885,134.926 C147.873,137.882 152.491,141.391 155.446,145.270 C156.739,146.748 157.663,149.150 157.663,151.366 C157.663,154.876 155.77,156.354 153.45,156.354 C150.828,156.354 148.242,155.246 145.102,151.921 C137.343,143.608 131.986,136.589 127.368,130.493 C126.814,129.754 126.629,129.200 126.629,128.830 C126.629,128.276 126.999,127.722 127.738,127.722 ZM197.562,128.461 C199.410,128.461 201.626,130.123 204.212,130.123 C205.690,130.123 207.168,129.384 209.15,127.722 C214.742,122.734 219.175,116.823 227.303,106.109 C227.857,105.370 228.411,105.1 228.965,105.1 C229.704,105.1 230.258,105.925 230.258,106.479 C230.258,107.772 222.500,128.276 217.697,136.219 C216.35,139.175 214.372,142.684 213.818,143.793 C212.894,145.640 211.416,147.118 209.569,147.118 C208.461,147.118 207.353,146.748 206.60,145.640 C200.148,140.283 195.715,131.416 195.715,130.308 C195.715,129.200 196.639,128.461 197.562,128.461 ZM259.75,129.569 C263.139,124.766 265.171,121.441 265.171,118.855 C265.171,117.932 264.801,116.823 264.801,116.84 C264.801,114.422 265.540,113.683 266.649,113.683 C268.681,113.683 275.515,116.823 278.286,119.409 C280.133,121.72 280.503,121.811 280.503,122.734 C280.503,124.397 279.25,126.429 276.993,128.91 C274.222,130.308 270.713,133.818 263.508,138.990 C254.88,146.9 248.176,148.965 238.386,152.659 C237.278,153.29 236.354,153.214 235.800,153.214 C234.507,153.214 233.953,152.659 233.953,151.921 C233.953,151.182 234.322,150.443 235.431,149.704 C245.221,143.239 252.979,136.589 259.75,129.569 ZM307.103,114.237 C309.320,114.237 318.925,119.40 326.314,123.843 C332.225,127.907 339.799,134.2 343.309,138.436 C344.417,139.914 345.341,142.315 345.341,144.716 C345.341,148.596 342.385,150.258 339.799,150.258 C337.767,150.258 335.181,149.150 331.856,145.825 C322.66,136.34 311.536,123.658 306.734,116.823 C306.179,115.900 305.995,115.530 305.995,115.161 C305.995,114.606 306.364,114.237 307.103,114.237 Z"/>
</svg>
